<svg width="537" height="218" viewBox="0 0 537 218" fill="none" xmlns="http://www.w3.org/2000/svg">
<path fill-rule="evenodd" clip-rule="evenodd" d="M471.847 0.488463C470.426 0.938463 466.941 2.90547 464.102 4.85847C461.263 6.81047 457.594 8.70446 455.947 9.06546C454.301 9.42746 452.697 10.1385 452.383 10.6465C452.07 11.1545 451.102 11.5695 450.232 11.5695C449.363 11.5695 448.139 12.2715 447.512 13.1285C446.625 14.3405 445.795 14.4685 443.781 13.7025C439.341 12.0145 416.408 7.56946 412.139 7.56946C405.893 7.56946 404.774 9.77647 399.067 33.3605C391.443 64.8645 379.922 115.237 379.999 116.737C380.183 120.363 382.74 110.485 391.952 70.5695C404.195 17.5185 405.611 12.1695 407.972 10.0325C410.058 8.14446 414.281 8.59846 432.931 12.7145C443.34 15.0115 446.294 16.1735 445.4 17.6195C444.471 19.1235 437.072 18.7315 427.692 16.6815C417.457 14.4455 416.334 14.8795 413.137 22.3125C409.006 31.9155 381.282 140.994 377.537 162.378C376.699 167.163 379.8 169.831 388.749 172.024C397.26 174.11 400.252 173.353 403.498 168.292C406.336 163.866 410.439 153.237 411.966 146.354C413.44 139.708 412.692 138.103 407.612 137.018C402.454 135.915 401.993 135.127 403.382 129.789C404.594 125.134 404.664 125.072 408.426 125.307C413.206 125.605 413.971 126.336 411.441 128.185C409.686 129.468 409.315 129.447 408.259 128.003C407.602 127.104 406.584 126.665 405.998 127.028C404.499 127.954 404.671 131.831 406.31 134.072C407.65 135.906 407.768 135.907 410.56 134.124C419.743 128.258 425.406 121.427 419.89 122.869C418.17 123.319 417.957 123.062 418.54 121.236C420.154 116.173 419.487 115.377 412.082 113.526C407.75 112.443 407.736 112.424 408.385 108.754C409.662 101.542 409.741 101.445 413.758 102.17C419.019 103.118 419.492 103.637 416.888 105.602C414.66 107.282 414.507 107.267 412.826 105.208C411.243 103.27 411.017 103.23 410.411 104.786C409.64 106.766 411.077 111.784 412.557 112.278C413.844 112.707 427.931 102.842 427.931 101.512C427.931 99.7115 424.899 99.2895 423.144 100.844C421.728 102.099 420.547 102.178 416.335 101.299C413.532 100.715 410.565 100.496 409.741 100.812C408.871 101.146 407.758 103.807 407.083 107.166C405.776 113.672 406.021 114.07 411.931 115.069C417.623 116.031 418.38 116.841 417.078 120.576C415.774 124.317 416.292 125.701 418.713 124.945C420.742 124.312 415.783 128.877 411.431 131.65C407.787 133.972 406.931 134.04 406.931 132.01C406.931 131.153 407.405 130.744 407.985 131.102C409.288 131.908 416.037 127.446 415.597 126.069C415.089 124.481 405.768 122.46 404.356 123.631C403.177 124.61 400.931 132.019 400.931 134.931C400.931 135.816 402.938 137.075 405.931 138.069C410.341 139.534 410.931 140.059 410.931 142.522C410.931 145.795 406.741 159.061 404.029 164.375C400.846 170.611 398.707 171.94 392.947 171.257C385.524 170.378 378.931 167.198 378.931 164.496C378.931 160.955 383.346 142.146 396.517 89.5695C409.857 36.3225 413.937 22.0195 416.792 18.4925L418.615 16.2425L429.373 18.5105C435.29 19.7585 441.459 20.5135 443.081 20.1895C445 19.8055 445.806 19.9635 445.387 20.6415C444.274 22.4415 445.865 26.4805 448.321 28.0895C450.752 29.6825 475.716 34.9295 486.536 36.1225C493.044 36.8395 496.931 35.6755 496.931 33.0085C496.931 31.6985 497.291 31.7045 499.905 33.0565C501.541 33.9025 506.982 35.6925 511.995 37.0335C517.008 38.3755 521.745 39.9995 522.52 40.6435C523.378 41.3555 523.931 43.7065 523.931 46.6415C523.931 54.6115 512.488 110.943 500.89 160.069C492.003 197.709 490.135 201.379 480.503 200.113C473.523 199.195 420.581 188.184 403.26 184.046C389.799 180.831 381.144 178.018 382.027 177.143C382.249 176.924 391.1 178.5 401.695 180.647C423.558 185.077 449.33 188.95 468.431 190.676C485.297 192.2 487.732 191.389 490.786 183.226C491.925 180.182 493.654 173.821 494.627 169.091C496.223 161.341 496.248 160.223 494.881 157.78C493.145 154.678 492.02 154.344 458.464 147.002C436.501 142.197 430.368 140.289 431.418 138.59C432.656 136.587 442.236 137.629 458.81 141.569C476.879 145.865 483.931 146.574 483.931 144.095C483.931 141.413 475.283 138.366 449.931 132.115C435.034 128.443 434.931 128.384 434.931 123.59C434.931 118.57 435.523 118.519 450.156 122.286C459.877 124.788 461.028 124.9 462.443 123.485C465.786 120.142 463.572 118.617 448.507 113.886C445.249 112.863 442.376 111.404 442.122 110.643C441.46 108.657 447.573 109.633 470.621 115.197C481.176 117.744 490.534 119.552 491.417 119.213C493.504 118.412 496.13 112.081 495.737 108.793C495.37 105.71 494.706 105.476 469.431 99.5455C451.069 95.2365 440.931 92.0615 440.931 90.6205C440.931 90.1765 441.614 89.2475 442.45 88.5535C444.605 86.7645 451.903 87.7165 468.703 91.9765C485.493 96.2345 489.195 96.4585 491.374 93.3465C495.409 87.5865 491.689 83.5145 480.114 81.0215C466.727 78.1385 452.547 74.4575 450.962 73.4555C448.777 72.0735 457.403 73.1895 475.768 76.6665C492.593 79.8515 501.049 80.3375 502.805 78.2215C505.384 75.1145 498.832 72.4635 476.431 67.5495C450.683 61.9025 436.931 58.3955 436.931 57.4785C436.931 56.9785 437.381 56.5695 437.931 56.5695C439.253 56.5695 439.219 53.8655 437.887 53.0425C437.313 52.6875 435.707 53.1415 434.318 54.0515C432.171 55.4585 431.018 55.5395 426.612 54.5925C421.838 53.5665 421.298 53.6435 419.736 55.5675C417.678 58.1025 416.28 66.3185 417.67 67.7085C418.213 68.2515 420.682 69.0055 423.156 69.3825L427.654 70.0695L426.302 74.6825L424.95 79.2965L420.32 78.2365C416.25 77.3055 415.529 77.3985 414.352 79.0085C412.887 81.0115 411.343 89.3155 412.264 90.2365C412.58 90.5525 415.317 91.3865 418.345 92.0905C424.66 93.5585 425.148 93.2665 426.818 87.0185C427.509 84.4325 429.027 82.1355 431.014 80.6665C433.316 78.9645 433.834 78.0725 433.004 77.2425C432.174 76.4125 431.341 76.4565 429.809 77.4135C428.669 78.1255 427.567 78.5395 427.361 78.3325C426.229 77.2005 433.217 59.5705 434.798 59.5685C435.146 59.5685 441.956 61.1425 449.931 63.0665C457.906 64.9905 471.2 68.0955 479.473 69.9665C494.483 73.3615 502.771 76.0625 501.641 77.1925C500.322 78.5125 487.657 77.4565 475.892 75.0475C469.039 73.6435 459.943 72.2205 455.681 71.8845C448.974 71.3555 447.931 71.4895 447.931 72.8815C447.931 74.8515 455.806 77.4135 473.076 81.0595C488.911 84.4035 490.431 85.1405 490.431 89.4735C490.431 95.3065 488.952 95.3995 470.274 90.7425C447.315 85.0185 439.29 85.0825 440.133 90.9815C440.522 93.7045 448.261 96.3165 473.431 102.22C483.881 104.671 493.018 107.256 493.736 107.964C495.836 110.034 492.455 117.569 489.427 117.569C488.169 117.569 478.88 115.548 468.785 113.078C450.73 108.66 441.676 107.555 440.404 109.613C439.154 111.635 442.277 113.61 450.809 116.192C459.424 118.8 461.931 120.039 461.931 121.691C461.931 123.178 457.369 122.676 447.448 120.099C435.39 116.966 432.978 117.664 432.946 124.296C432.925 128.717 434.816 129.713 451.431 134.039C471.487 139.261 481.931 142.502 481.931 143.506C481.931 144.809 475.064 143.75 459.246 140.01C436.689 134.675 429.931 134.339 429.931 138.553C429.931 142.139 434.416 143.595 466.78 150.515C479.456 153.226 490.751 155.938 491.879 156.541C493.457 157.386 493.931 158.627 493.931 161.916C493.931 169.763 488.627 186.762 485.541 188.804C481.235 191.653 438.183 186.53 399.057 178.514C382.894 175.202 379.931 174.96 379.931 176.946C379.931 178.873 387.597 181.93 399.931 184.921C421.348 190.116 473.655 200.791 480.221 201.309C486.332 201.79 487.255 201.614 489.46 199.541C490.808 198.275 492.811 194.834 493.91 191.894C500.376 174.615 525.931 57.3245 525.931 44.9315C525.931 43.1605 525.228 41.0095 524.37 40.1515C522.937 38.7185 515.842 36.2855 505.226 33.5855C500.433 32.3675 497.682 30.0765 498.156 27.6985C498.588 25.5275 500.614 25.8505 516.931 30.6885C535.752 36.2685 535.325 35.9015 534.658 45.9305C534.085 54.5395 528.961 81.0305 516.452 140.069C506.498 187.044 501.313 208.411 498.91 212.362C497.072 215.386 496.625 215.569 491.084 215.569C484.549 215.569 458.074 211.033 423.931 204.063C381.163 195.333 371.982 192.283 369.953 186.135C368.502 181.741 369.839 170.971 374.983 145.599C377.155 134.891 378.931 124.57 378.931 122.665C378.931 114.697 370.665 104.318 360.431 99.4345C352.362 95.5835 343.06 95.4805 332.107 99.1205C327.885 100.523 308.906 109.347 289.931 118.729C242.782 142.042 233.852 145.304 210.853 147.615C193.417 149.368 173.309 146.251 166.023 140.667L163.615 138.822L165.942 135.553C169.536 130.506 172.881 121.52 172.907 116.842C172.948 109.565 167.654 107.939 161.289 113.274C155.567 118.069 154.33 127.26 158.381 134.879L160.831 139.487L156.165 143.594C147.064 151.606 130.879 157.288 105.931 161.23C89.6238 163.808 56.9988 163.554 35.4308 160.683C26.0808 159.439 15.2808 157.728 11.4308 156.882C-0.573223 154.243 -0.649224 154.233 0.430776 155.381C1.68778 156.716 17.5858 159.916 33.9308 162.123C52.4438 164.624 87.4378 165.161 102.546 163.175C127.962 159.835 148.221 152.952 157.321 144.564L161.839 140.399L168.135 143.49C171.598 145.191 177.581 147.246 181.431 148.058C190.564 149.984 209.359 149.97 220.55 148.028C239.589 144.725 248.995 140.976 289.931 120.371C336.823 96.7685 345.314 94.3765 359.912 100.656C366.042 103.293 373.981 111.516 376.326 117.655L378.075 122.236L373.413 145.652C368.145 172.115 366.994 182.892 368.936 187.581C371.502 193.777 381.16 196.902 426.014 206.05C457.673 212.506 486.575 217.569 491.776 217.569C499.252 217.569 501.153 214.556 505.862 195.24C513.452 164.112 534.016 64.4395 536.075 48.8025C537.233 40.0075 537.192 39.3955 535.256 36.8025C533.113 33.9305 522.152 29.8955 505.723 25.9305C498.907 24.2855 497.982 23.7875 497.723 21.6295C497.521 19.9385 496.204 18.5575 493.431 17.1295C490.38 15.5585 488.807 13.7645 486.8 9.56946C485.353 6.54446 483.298 3.28747 482.234 2.33147C479.863 0.200465 475.305 -0.608537 471.847 0.488463ZM469.431 3.26247C467.781 4.14947 465.081 5.87546 463.431 7.09846C461.781 8.32146 458.783 9.84946 456.769 10.4945C452.728 11.7875 451.931 13.0575 451.931 18.2025C451.931 22.4915 453.569 23.2835 470.051 26.9705C484.547 30.2125 489.45 30.3375 490.967 27.5025C492.872 23.9425 489.909 20.9485 482.187 18.6275C472.59 15.7435 468.931 13.2905 468.931 9.73946C468.931 4.28746 476.572 0.990466 479.603 5.13547C482.487 9.07947 480.825 12.9915 475.931 13.7805C474.031 14.0875 475.167 14.7325 480.663 16.4685C484.641 17.7255 489.028 19.6445 490.413 20.7345C493.822 23.4155 493.823 27.9385 490.415 30.1715C487.502 32.0805 485.637 31.8965 466.931 27.8555C451.908 24.6105 449.361 22.8565 450.233 16.3555C450.727 12.6725 450.632 12.4405 449.215 13.8575C446.923 16.1495 446.29 24.7925 448.293 26.4545C450.379 28.1865 476.289 33.4575 486.521 34.2315C495.707 34.9265 495.33 35.2265 496.438 26.3555L497.129 20.8285L492.78 18.4495C489.518 16.6645 487.8 14.7765 485.908 10.8995C482.268 3.43947 480.271 1.56247 476.026 1.60947C474.049 1.63147 471.081 2.37546 469.431 3.26247ZM472.338 7.08246C471.211 11.5745 476.069 14.5185 478.927 11.0745C479.927 9.86946 479.849 9.09347 478.526 7.07447C476.371 3.78447 473.165 3.78846 472.338 7.08246ZM433.911 56.0935C431.979 58.4225 433.357 58.8605 435.425 56.5755C436.424 55.4725 436.776 54.5695 436.208 54.5695C435.641 54.5695 434.607 55.2555 433.911 56.0935ZM420.426 56.8195C420.183 57.5075 419.572 59.9745 419.068 62.3025L418.151 66.5365L421.684 67.5115C425.804 68.6495 428.424 67.6155 429.229 64.5365C429.757 62.5185 429.684 62.5015 427.287 64.0715C424.361 65.9885 422.425 64.9345 421.676 61.0155C421.096 57.9805 422.791 56.6585 424.415 58.8785C425.499 60.3615 425.79 60.3565 427.984 58.8195L430.374 57.1465L427.902 56.4575C423.886 55.3385 420.899 55.4825 420.426 56.8195ZM426.959 61.1185C425.05 62.4665 424.012 63.5695 424.653 63.5695C425.295 63.5695 427.082 62.4585 428.625 61.1015C432.201 57.9555 431.428 57.9635 426.959 61.1185ZM427.431 80.6495C421.498 85.1345 420.7 86.4005 426.263 82.4995C430.466 79.5535 432.753 77.5065 431.74 77.5975C431.57 77.6125 429.631 78.9865 427.431 80.6495ZM415.467 79.5115C415.218 79.9145 414.591 82.1255 414.075 84.4265C413.012 89.1545 413.654 89.8645 420.085 91.0705C423.967 91.7985 424.298 91.5585 425.325 87.2655L425.996 84.4615L423.087 86.6125C419.262 89.4405 416.526 88.8825 416.103 85.1895C415.68 81.5045 417.742 79.1305 418.58 82.3365C419.292 85.0585 420.107 85.1375 422.313 82.7005C423.931 80.9115 423.83 80.7875 419.962 79.8055C417.738 79.2405 415.716 79.1085 415.467 79.5115ZM417.047 84.7605C416.894 86.9945 418.804 88.0985 420.268 86.6235C421.154 85.7295 421.036 85.6015 419.768 86.0835C418.658 86.5065 417.949 86.1105 417.634 84.8925C417.23 83.3295 417.146 83.3105 417.047 84.7605ZM419.054 105.594C416.097 107.759 413.172 109.248 412.554 108.903C411.803 108.483 411.819 108.695 412.601 109.542C413.531 110.549 415.017 109.935 419.851 106.544C423.195 104.198 425.931 102.119 425.931 101.924C425.931 100.954 423.946 102.013 419.054 105.594ZM163.904 113.273C160.419 115.675 159.117 117.525 157.921 121.773C156.668 126.225 158.212 133.608 160.905 136.046C162.555 137.539 162.878 137.326 165.752 132.847C167.446 130.208 169.51 125.445 170.339 122.262C172.754 112.99 169.966 109.095 163.904 113.273Z" fill="#868484" fill-opacity="0.87"/>
</svg>
