<svg width="180" height="180" viewBox="0 0 180 180" fill="none" xmlns="http://www.w3.org/2000/svg">
<rect width="180" height="180" rx="5" fill="#E2E6EC"/>
<path fill-rule="evenodd" clip-rule="evenodd" d="M51.6016 66.6C51.6016 62.2922 55.0937 58.8 59.4016 58.8H120.602C124.909 58.8 128.402 62.2922 128.402 66.6V114.6C128.402 118.908 124.909 122.4 120.602 122.4H59.4016C55.0937 122.4 51.6016 118.908 51.6016 114.6V66.6ZM59.4016 62.4C57.082 62.4 55.2016 64.2804 55.2016 66.6V114.6C55.2016 116.92 57.082 118.8 59.4016 118.8H120.602C122.921 118.8 124.802 116.92 124.802 114.6V66.6C124.802 64.2804 122.921 62.4 120.602 62.4H59.4016Z" fill="#B2B9C4"/>
<ellipse cx="69.6008" cy="75.6" rx="7.8" ry="7.8" fill="#B2B9C4"/>
<path d="M61.8008 109.933V104.49C61.8008 104.048 61.9764 103.624 62.2889 103.312L73.2771 92.3237C73.9061 91.6946 74.9184 91.6706 75.5767 92.269L79.8413 96.146C80.4929 96.7383 81.4929 96.7216 82.1243 96.1077L101.423 77.3455C102.076 76.7103 103.118 76.7176 103.763 77.362L118.913 92.5118C119.225 92.8244 119.401 93.2483 119.401 93.6904V109.933C119.401 110.854 118.655 111.6 117.734 111.6H63.4674C62.547 111.6 61.8008 110.854 61.8008 109.933Z" fill="#B2B9C4"/>
</svg>
