<svg width="200" height="167" viewBox="0 0 200 167" fill="none" xmlns="http://www.w3.org/2000/svg">
<rect y="14.8438" width="200" height="152.156" fill="#9087E5"/>
<path d="M0 0H170.909L200 14.8444H0L0 0Z" fill="#AEA7EC"/>
<path d="M100.002 71.66C110.442 71.66 116.622 66.56 116.622 58.52C116.622 53.06 113.262 49.52 108.282 48.44C112.542 46.94 115.362 43.94 115.362 39.14C115.362 32.42 109.842 27.5 100.422 27.5C90.6422 27.5 85.0622 33.26 84.5822 41.12H93.1622C93.6422 37.1 96.1622 34.64 100.242 34.64C104.202 34.64 106.182 36.92 106.182 39.98C106.182 43.64 104.142 45.68 99.6422 45.68H96.5222V52.16H99.8822C104.502 52.16 106.782 54.26 106.782 58.34C106.782 62.18 104.502 64.52 99.6422 64.52C94.4822 64.52 92.2622 61.52 91.9022 57.38H83.1422C83.5022 66.08 89.0822 71.66 100.002 71.66Z" fill="white"/>
</svg>
