<svg width="196" height="91" viewBox="0 0 196 91" fill="none" xmlns="http://www.w3.org/2000/svg">
<path d="M49.5923 49.1655C51.5682 49.1655 53.1701 50.7674 53.1701 52.7433V55.2279C53.1701 58.5212 50.5003 61.1909 47.2071 61.1909C42.2379 61.1909 38.5607 59.5345 36.1755 56.2217C33.0615 60.4621 28.258 62.5823 21.7649 62.5823C17.6273 62.5823 12.8204 65.5743 12.8204 69.712V74.6573C12.8204 78.1976 9.95049 81.0676 6.41022 81.0676C2.86996 81.0676 0 78.1976 0 74.6573V17.9095C0 14.3692 2.86996 11.4993 6.41022 11.4993C9.95049 11.4993 12.8204 14.3692 12.8204 17.9095V40.3204C12.8204 43.6332 13.7149 46.184 15.5038 47.9729C17.2927 49.7618 19.6779 50.6563 22.6594 50.6563C25.9722 50.6563 28.6224 49.6293 30.6101 47.5754C32.5977 45.5215 33.5916 42.4406 33.5916 38.3328V17.9095C33.5916 14.3692 36.4615 11.4993 40.0018 11.4993C43.542 11.4993 46.412 14.3692 46.412 17.9095V45.9853C46.412 48.1054 47.4721 49.1655 49.5923 49.1655Z" fill="white"/>
<path d="M63.9636 37.9496C63.9636 38.7709 64.4974 39.4484 65.565 39.9822C66.6737 40.4749 68.0082 40.9266 69.5686 41.3372C71.129 41.7068 72.6893 42.1995 74.2497 42.8155C75.81 43.3903 77.124 44.3758 78.1916 45.772C79.3003 47.1681 79.8547 48.9132 79.8547 51.0074C79.8547 54.1692 78.6639 56.6124 76.2823 58.337C73.9417 60.0205 71.0058 60.8623 67.4744 60.8623C61.1508 60.8623 56.8393 58.4191 54.5398 53.5327L61.4383 49.6523C62.3416 52.3214 64.3537 53.6559 67.4744 53.6559C70.3077 53.6559 71.7244 52.7731 71.7244 51.0074C71.7244 50.1861 71.17 49.5291 70.0613 49.0364C68.9937 48.5026 67.6797 48.0304 66.1194 47.6198C64.559 47.2091 62.9986 46.6959 61.4383 46.0799C59.8779 45.464 58.5434 44.499 57.4347 43.185C56.3671 41.83 55.8333 40.1464 55.8333 38.1344C55.8333 35.0958 56.942 32.7142 59.1593 30.9896C61.4177 29.2239 64.21 28.3411 67.536 28.3411C70.0408 28.3411 72.3198 28.9159 74.3729 30.0657C76.426 31.1743 78.0479 32.7758 79.2387 34.8699L72.4635 38.5655C71.478 36.4714 69.8355 35.4243 67.536 35.4243C66.5095 35.4243 65.6472 35.6501 64.9491 36.1018C64.2921 36.5535 63.9636 37.1694 63.9636 37.9496ZM101.678 36.8409H94.7179V49.6523C94.7179 50.7199 94.9848 51.5001 95.5186 51.9929C96.0524 52.4856 96.8326 52.7731 97.8591 52.8552C98.8857 52.8962 100.159 52.8757 101.678 52.7936V60C96.2167 60.6159 92.3568 60.1027 90.0984 58.4602C87.881 56.8177 86.7724 53.8817 86.7724 49.6523V36.8409H81.4137V29.2034H86.7724V22.9824L94.7179 20.5803V29.2034H101.678V36.8409ZM132.556 56.1812C129.395 59.3019 125.535 60.8623 120.977 60.8623C116.419 60.8623 112.559 59.3019 109.397 56.1812C106.277 53.0194 104.716 49.1596 104.716 44.6017C104.716 40.0438 106.277 36.2045 109.397 33.0837C112.559 29.922 116.419 28.3411 120.977 28.3411C125.535 28.3411 129.395 29.922 132.556 33.0837C135.718 36.2045 137.299 40.0438 137.299 44.6017C137.299 49.1596 135.718 53.0194 132.556 56.1812ZM115.002 50.6994C116.604 52.3008 118.595 53.1016 120.977 53.1016C123.358 53.1016 125.35 52.3008 126.951 50.6994C128.553 49.098 129.354 47.0654 129.354 44.6017C129.354 42.138 128.553 40.1054 126.951 38.5039C125.35 36.9025 123.358 36.1018 120.977 36.1018C118.595 36.1018 116.604 36.9025 115.002 38.5039C113.442 40.1054 112.662 42.138 112.662 44.6017C112.662 47.0654 113.442 49.098 115.002 50.6994ZM150.834 34.5004C151.573 32.5294 152.785 31.0512 154.468 30.0657C156.193 29.0802 158.102 28.5874 160.196 28.5874V37.4569C157.774 37.1694 155.597 37.6622 153.667 38.9351C151.779 40.208 150.834 42.3227 150.834 45.2792V60H142.889V29.2034H150.834V34.5004ZM170.414 47.8661C171.482 51.726 174.377 53.6559 179.099 53.6559C182.137 53.6559 184.437 52.6293 185.997 50.5762L192.403 54.2718C189.364 58.6655 184.889 60.8623 178.976 60.8623C173.884 60.8623 169.798 59.3225 166.718 56.2428C163.639 53.1631 162.099 49.2828 162.099 44.6017C162.099 39.9617 163.618 36.1018 166.657 33.0221C169.696 29.9014 173.596 28.3411 178.36 28.3411C182.876 28.3411 186.593 29.9014 189.508 33.0221C192.464 36.1429 193.943 40.0027 193.943 44.6017C193.943 45.6282 193.84 46.7164 193.635 47.8661H170.414ZM170.291 41.7068H185.997C185.546 39.6126 184.601 38.0523 183.164 37.0257C181.768 35.9992 180.166 35.4859 178.36 35.4859C176.224 35.4859 174.459 36.0402 173.063 37.1489C171.666 38.2165 170.743 39.7358 170.291 41.7068Z" fill="white"/>
<path d="M44.6875 88.0448C60.3813 81.7336 75.5179 75.9536 92.4468 74.2173C102.991 73.1358 113.609 72.2808 124.172 71.3896C143.064 69.7959 162.208 69.0801 181.16 68.4688" stroke="white" stroke-width="4.02694" stroke-linecap="round"/>
</svg>
