<svg width="22" height="28" viewBox="0 0 22 28" fill="none" xmlns="http://www.w3.org/2000/svg">
<path d="M19.7041 15.1052C20.4845 15.1052 21.1172 15.7378 21.1172 16.5182V17.4995C21.1172 18.8002 20.0628 19.8547 18.762 19.8547C16.7994 19.8547 15.3471 19.2005 14.405 17.8921C13.1751 19.5668 11.2779 20.4042 8.71345 20.4042C7.07925 20.4042 5.18074 21.586 5.18074 23.2202V25.1734C5.18074 26.5716 4.04722 27.7051 2.64896 27.7051C1.2507 27.7051 0.117188 26.5716 0.117188 25.1734V2.76029C0.117188 1.36203 1.2507 0.228516 2.64896 0.228516C4.04722 0.228516 5.18074 1.36203 5.18074 2.76029V11.6117C5.18074 12.9201 5.53401 13.9276 6.24055 14.6341C6.94709 15.3407 7.88915 15.6939 9.06672 15.6939C10.3751 15.6939 11.4219 15.2883 12.2069 14.4771C12.992 13.6659 13.3845 12.4491 13.3845 10.8266V2.76029C13.3845 1.36203 14.518 0.228516 15.9163 0.228516C17.3145 0.228516 18.448 1.36203 18.448 2.76029V13.8491C18.448 14.6865 18.8667 15.1052 19.7041 15.1052Z" fill="url(#paint0_linear_3986_8459)"/>
<defs>
<linearGradient id="paint0_linear_3986_8459" x1="-1.97502" y1="-1.95273" x2="24.2221" y2="18.1013" gradientUnits="userSpaceOnUse">
<stop offset="0.135417" stop-color="#2E85FE"/>
<stop offset="1" stop-color="#D725FF"/>
</linearGradient>
</defs>
</svg>
