<svg width="26" height="26" viewBox="0 0 26 26" fill="none" xmlns="http://www.w3.org/2000/svg">
<path d="M20.8933 6.44616C19.5077 5.80026 18.0076 5.33146 16.4449 5.06059C16.4312 5.06016 16.4176 5.06273 16.405 5.06813C16.3924 5.07353 16.3811 5.08162 16.372 5.09185C16.1844 5.43563 15.9657 5.8836 15.8198 6.22738C14.1624 5.97736 12.4768 5.97736 10.8193 6.22738C10.6734 5.87318 10.4547 5.43563 10.2567 5.09185C10.2463 5.07101 10.2151 5.06059 10.1838 5.06059C8.62114 5.33146 7.1314 5.80026 5.73542 6.44616C5.725 6.44616 5.71459 6.45658 5.70417 6.46699C2.87054 10.707 2.0892 14.8325 2.47466 18.9162C2.47466 18.9371 2.48508 18.9579 2.50591 18.9683C4.38111 20.3435 6.18339 21.1769 7.96482 21.729C7.99608 21.7394 8.02733 21.729 8.03775 21.7082C8.45446 21.1352 8.8295 20.531 9.15245 19.8955C9.17329 19.8538 9.15245 19.8122 9.11078 19.8017C8.51697 19.5725 7.95441 19.3017 7.40226 18.9892C7.36059 18.9683 7.36059 18.9058 7.39185 18.8746C7.50644 18.7912 7.62104 18.6975 7.73563 18.6141C7.75647 18.5933 7.78772 18.5933 7.80856 18.6037C11.3923 20.2393 15.2573 20.2393 18.7993 18.6037C18.8201 18.5933 18.8514 18.5933 18.8722 18.6141C18.9868 18.7079 19.1014 18.7912 19.216 18.885C19.2577 18.9162 19.2577 18.9787 19.2056 18.9996C18.6639 19.3225 18.0909 19.583 17.4971 19.8122C17.4554 19.8226 17.445 19.8747 17.4554 19.9059C17.7888 20.5414 18.1638 21.1456 18.5701 21.7186C18.6014 21.729 18.6326 21.7394 18.6639 21.729C20.4557 21.1769 22.258 20.3435 24.1332 18.9683C24.154 18.9579 24.1645 18.9371 24.1645 18.9162C24.6228 14.197 23.404 10.1028 20.9349 6.46699C20.9245 6.45658 20.9141 6.44616 20.8933 6.44616ZM9.69417 16.4264C8.62114 16.4264 7.72522 15.4367 7.72522 14.2178C7.72522 12.9989 8.60031 12.0092 9.69417 12.0092C10.7985 12.0092 11.6735 13.0094 11.6631 14.2178C11.6631 15.4367 10.788 16.4264 9.69417 16.4264ZM16.9554 16.4264C15.8823 16.4264 14.9864 15.4367 14.9864 14.2178C14.9864 12.9989 15.8615 12.0092 16.9554 12.0092C18.0596 12.0092 18.9347 13.0094 18.9243 14.2178C18.9243 15.4367 18.0596 16.4264 16.9554 16.4264Z" fill="white"/>
</svg>
