<svg width="20" height="20" viewBox="0 0 20 20" fill="none" xmlns="http://www.w3.org/2000/svg">
<mask id="mask0_4186_5068" style="mask-type:luminance" maskUnits="userSpaceOnUse" x="0" y="0" width="20" height="20">
<path d="M19.3109 0.691895H0.078125V19.9247H19.3109V0.691895Z" fill="white"/>
</mask>
<g mask="url(#mask0_4186_5068)">
<path d="M16.1043 3.89795H3.28242C2.40092 3.89795 1.6877 4.61918 1.6877 5.50068L1.67969 15.1171C1.67969 15.9986 2.40092 16.7198 3.28242 16.7198H16.1043C16.9858 16.7198 17.707 15.9986 17.707 15.1171V5.50068C17.707 4.61918 16.9858 3.89795 16.1043 3.89795ZM15.3029 15.1171H4.08379C3.64304 15.1171 3.28242 14.7565 3.28242 14.3157V7.10342L8.84391 10.5813C9.3648 10.9099 10.0219 10.9099 10.5428 10.5813L16.1043 7.10342V14.3157C16.1043 14.7565 15.7437 15.1171 15.3029 15.1171ZM9.69336 9.50752L3.28242 5.50068H16.1043L9.69336 9.50752Z" fill="white"/>
</g>
</svg>
