<svg width="20" height="21" viewBox="0 0 20 21" fill="none" xmlns="http://www.w3.org/2000/svg">
<path d="M16.5503 1.73926H3.08734C2.02954 1.73926 1.16406 2.60473 1.16406 3.66254V17.1255C1.16406 18.1843 2.02954 19.0488 3.08734 19.0488H9.81882V12.3173H7.89554V9.93724H9.81882V7.96588C9.81882 5.88489 10.9843 4.4232 13.4404 4.4232L15.1742 4.42512V6.93019H14.0231C13.0672 6.93019 12.7037 7.64757 12.7037 8.31303V9.9382H15.1732L14.627 12.3173H12.7037V19.0488H16.5503C17.6081 19.0488 18.4736 18.1843 18.4736 17.1255V3.66254C18.4736 2.60473 17.6081 1.73926 16.5503 1.73926Z" fill="white"/>
</svg>
