<svg width="24" height="24" viewBox="0 0 24 24" fill="none" xmlns="http://www.w3.org/2000/svg">
<path d="M7.62439 2.77979H15.7022C18.7794 2.77979 21.2797 5.28005 21.2797 8.3573V16.4351C21.2797 17.9143 20.6921 19.333 19.6461 20.379C18.6001 21.425 17.1814 22.0126 15.7022 22.0126H7.62439C4.54714 22.0126 2.04688 19.5123 2.04688 16.4351V8.3573C2.04688 6.87805 2.6345 5.45939 3.68049 4.4134C4.72648 3.36741 6.14514 2.77979 7.62439 2.77979ZM7.43206 4.70307C6.51391 4.70307 5.63336 5.0678 4.98412 5.71703C4.33489 6.36627 3.97016 7.24682 3.97016 8.16497V16.6274C3.97016 18.5411 5.5184 20.0893 7.43206 20.0893H15.8945C16.8126 20.0893 17.6932 19.7246 18.3424 19.0753C18.9917 18.4261 19.3564 17.5456 19.3564 16.6274V8.16497C19.3564 6.25131 17.8082 4.70307 15.8945 4.70307H7.43206ZM16.7119 6.14553C17.0307 6.14553 17.3364 6.27217 17.5619 6.4976C17.7873 6.72303 17.9139 7.02877 17.9139 7.34758C17.9139 7.66638 17.7873 7.97213 17.5619 8.19755C17.3364 8.42298 17.0307 8.54963 16.7119 8.54963C16.3931 8.54963 16.0873 8.42298 15.8619 8.19755C15.6365 7.97213 15.5098 7.66638 15.5098 7.34758C15.5098 7.02877 15.6365 6.72303 15.8619 6.4976C16.0873 6.27217 16.3931 6.14553 16.7119 6.14553ZM11.6633 7.58799C12.9385 7.58799 14.1615 8.09456 15.0632 8.99628C15.9649 9.89799 16.4715 11.121 16.4715 12.3962C16.4715 13.6714 15.9649 14.8944 15.0632 15.7961C14.1615 16.6978 12.9385 17.2044 11.6633 17.2044C10.3881 17.2044 9.16508 16.6978 8.26337 15.7961C7.36165 14.8944 6.85508 13.6714 6.85508 12.3962C6.85508 11.121 7.36165 9.89799 8.26337 8.99628C9.16508 8.09456 10.3881 7.58799 11.6633 7.58799ZM11.6633 9.51127C10.8981 9.51127 10.1644 9.81521 9.62333 10.3562C9.0823 10.8973 8.77836 11.6311 8.77836 12.3962C8.77836 13.1613 9.0823 13.8951 9.62333 14.4361C10.1644 14.9772 10.8981 15.2811 11.6633 15.2811C12.4284 15.2811 13.1622 14.9772 13.7032 14.4361C14.2443 13.8951 14.5482 13.1613 14.5482 12.3962C14.5482 11.6311 14.2443 10.8973 13.7032 10.3562C13.1622 9.81521 12.4284 9.51127 11.6633 9.51127Z" fill="white"/>
</svg>
