<svg width="194" height="80" viewBox="0 0 194 80" fill="none" xmlns="http://www.w3.org/2000/svg">
<path d="M49.5923 38.1655C51.5682 38.1655 53.1701 39.7674 53.1701 41.7433V44.2279C53.1701 47.5212 50.5003 50.1909 47.2071 50.1909C42.2379 50.1909 38.5607 48.5345 36.1755 45.2217C33.0615 49.4621 28.258 51.5823 21.7649 51.5823C17.6273 51.5823 12.8204 54.5743 12.8204 58.712V63.6573C12.8204 67.1976 9.95049 70.0676 6.41022 70.0676C2.86996 70.0676 0 67.1976 0 63.6573V6.90948C0 3.36921 2.86996 0.499268 6.41022 0.499268C9.95049 0.499268 12.8204 3.36922 12.8204 6.90949V29.3204C12.8204 32.6332 13.7149 35.184 15.5038 36.9729C17.2927 38.7618 19.6779 39.6563 22.6594 39.6563C25.9722 39.6563 28.6224 38.6293 30.6101 36.5754C32.5977 34.5215 33.5916 31.4406 33.5916 27.3328V6.90949C33.5916 3.36922 36.4615 0.499268 40.0018 0.499268C43.542 0.499268 46.412 3.36922 46.412 6.90949V34.9853C46.412 37.1054 47.4721 38.1655 49.5923 38.1655Z" fill="#132972"/>
<path d="M63.9636 26.9496C63.9636 27.7709 64.4974 28.4484 65.565 28.9822C66.6737 29.4749 68.0082 29.9266 69.5686 30.3372C71.129 30.7068 72.6893 31.1995 74.2497 31.8155C75.81 32.3903 77.124 33.3758 78.1916 34.772C79.3003 36.1681 79.8547 37.9132 79.8547 40.0074C79.8547 43.1692 78.6639 45.6124 76.2823 47.337C73.9417 49.0205 71.0058 49.8623 67.4744 49.8623C61.1508 49.8623 56.8393 47.4191 54.5398 42.5327L61.4383 38.6523C62.3416 41.3214 64.3537 42.6559 67.4744 42.6559C70.3077 42.6559 71.7244 41.7731 71.7244 40.0074C71.7244 39.1861 71.17 38.5291 70.0613 38.0364C68.9937 37.5026 67.6797 37.0304 66.1194 36.6198C64.559 36.2091 62.9986 35.6959 61.4383 35.0799C59.8779 34.464 58.5434 33.499 57.4347 32.185C56.3671 30.83 55.8333 29.1464 55.8333 27.1344C55.8333 24.0958 56.942 21.7142 59.1593 19.9896C61.4177 18.2239 64.21 17.3411 67.536 17.3411C70.0408 17.3411 72.3198 17.9159 74.3729 19.0657C76.426 20.1743 78.0479 21.7758 79.2387 23.8699L72.4635 27.5655C71.478 25.4714 69.8355 24.4243 67.536 24.4243C66.5095 24.4243 65.6472 24.6501 64.9491 25.1018C64.2921 25.5535 63.9636 26.1694 63.9636 26.9496ZM101.678 25.8409H94.7179V38.6523C94.7179 39.7199 94.9848 40.5001 95.5186 40.9929C96.0524 41.4856 96.8326 41.7731 97.8591 41.8552C98.8857 41.8962 100.159 41.8757 101.678 41.7936V49C96.2167 49.6159 92.3568 49.1027 90.0984 47.4602C87.881 45.8177 86.7724 42.8817 86.7724 38.6523V25.8409H81.4137V18.2034H86.7724V11.9824L94.7179 9.5803V18.2034H101.678V25.8409ZM132.556 45.1812C129.395 48.3019 125.535 49.8623 120.977 49.8623C116.419 49.8623 112.559 48.3019 109.397 45.1812C106.277 42.0194 104.716 38.1596 104.716 33.6017C104.716 29.0438 106.277 25.2045 109.397 22.0837C112.559 18.922 116.419 17.3411 120.977 17.3411C125.535 17.3411 129.395 18.922 132.556 22.0837C135.718 25.2045 137.299 29.0438 137.299 33.6017C137.299 38.1596 135.718 42.0194 132.556 45.1812ZM115.002 39.6994C116.604 41.3008 118.595 42.1016 120.977 42.1016C123.358 42.1016 125.35 41.3008 126.951 39.6994C128.553 38.098 129.354 36.0654 129.354 33.6017C129.354 31.138 128.553 29.1054 126.951 27.5039C125.35 25.9025 123.358 25.1018 120.977 25.1018C118.595 25.1018 116.604 25.9025 115.002 27.5039C113.442 29.1054 112.662 31.138 112.662 33.6017C112.662 36.0654 113.442 38.098 115.002 39.6994ZM150.834 23.5004C151.573 21.5294 152.785 20.0512 154.468 19.0657C156.193 18.0802 158.102 17.5874 160.196 17.5874V26.4569C157.774 26.1694 155.597 26.6622 153.667 27.9351C151.779 29.208 150.834 31.3227 150.834 34.2792V49H142.889V18.2034H150.834V23.5004ZM170.414 36.8661C171.482 40.726 174.377 42.6559 179.099 42.6559C182.137 42.6559 184.437 41.6293 185.997 39.5762L192.403 43.2718C189.364 47.6655 184.889 49.8623 178.976 49.8623C173.884 49.8623 169.798 48.3225 166.718 45.2428C163.639 42.1631 162.099 38.2828 162.099 33.6017C162.099 28.9617 163.618 25.1018 166.657 22.0221C169.696 18.9014 173.596 17.3411 178.36 17.3411C182.876 17.3411 186.593 18.9014 189.508 22.0221C192.464 25.1429 193.943 29.0027 193.943 33.6017C193.943 34.6282 193.84 35.7164 193.635 36.8661H170.414ZM170.291 30.7068H185.997C185.546 28.6126 184.601 27.0523 183.164 26.0257C181.768 24.9992 180.166 24.4859 178.36 24.4859C176.224 24.4859 174.459 25.0402 173.063 26.1489C171.666 27.2165 170.743 28.7358 170.291 30.7068Z" fill="#132972"/>
<path d="M44.6875 77.0448C60.3813 70.7336 75.5179 64.9536 92.4468 63.2173C102.991 62.1358 113.609 61.2808 124.172 60.3896C143.064 58.7959 162.208 58.0801 181.16 57.4688" stroke="#132972" stroke-width="4.02694" stroke-linecap="round"/>
</svg>
