<svg width="97" height="23" viewBox="0 0 97 23" fill="none" xmlns="http://www.w3.org/2000/svg">
<path d="M15.193 12.7958V12.7958C15.8292 12.7958 16.345 13.3115 16.345 13.9477V14.3836C16.345 15.2605 15.6341 15.9714 14.7572 15.9714H14.6015C13.0241 15.9714 11.9137 15.3694 11.2702 14.1656C10.2325 15.6393 8.66542 16.3761 6.56912 16.3761V16.3761C5.12835 16.3761 3.36239 17.4146 3.36239 18.8554V20.5168C3.36239 21.4453 2.60969 22.198 1.6812 22.198V22.198C0.752697 22.198 0 21.4453 0 20.5168V2.08593C0 1.15743 0.752697 0.404732 1.6812 0.404732V0.404732C2.60969 0.404732 3.36239 1.15743 3.36239 2.08593V9.62017C3.36239 10.7617 3.67372 11.6542 4.29639 12.2976C4.91905 12.9203 5.75965 13.2316 6.81818 13.2316C8.022 13.2316 8.98713 12.8684 9.71357 12.142C10.44 11.3948 10.8032 10.2532 10.8032 8.71731V2.08593C10.8032 1.15743 11.5559 0.404732 12.4844 0.404732V0.404732C13.4129 0.404732 14.1656 1.15743 14.1656 2.08593V11.7684C14.1656 12.0797 14.259 12.3288 14.4458 12.5156C14.6326 12.7024 14.8817 12.7958 15.193 12.7958Z" fill="white"/>
<path d="M22.8917 9.34779C22.8917 11.1145 24.3239 12.5467 26.0906 12.5467H30.0523C30.998 12.5467 31.7647 13.3133 31.7647 14.259V14.259C31.7647 15.2047 30.998 15.9714 30.0523 15.9714H25.538C22.0991 15.9714 19.3114 13.1836 19.3114 9.7447V2.19485C19.3114 1.20617 20.1129 0.40469 21.1015 0.40469V0.40469C22.0902 0.40469 22.8917 1.20617 22.8917 2.19485V9.34779Z" fill="white"/>
<path d="M37.6472 9.62017C36.9858 9.62017 36.482 10.2396 36.7769 10.8315C37.0836 11.447 37.5167 11.9565 38.0762 12.3599C38.9687 12.9826 40.0584 13.2939 41.3452 13.2939C42.5408 13.2939 43.5361 13.0052 44.3313 12.4279C45.011 11.9345 45.9211 11.6906 46.6463 12.1144V12.1144C47.4502 12.5841 47.7002 13.6546 47.0265 14.2972C45.5737 15.6831 43.6696 16.3761 41.3141 16.3761C38.7819 16.3761 36.7375 15.6081 35.1808 14.0722C33.6241 12.5156 32.8458 10.5542 32.8458 8.18804C32.8458 5.86343 33.6138 3.92279 35.1497 2.36613C36.6856 0.788708 38.6574 0 41.065 0C43.3481 0 45.2161 0.799085 46.669 2.39726C48.1426 3.99543 48.8794 5.93607 48.8794 8.21918V8.21918C48.8794 9.02685 48.155 9.62017 47.3473 9.62017H37.6472ZM36.3327 6.88045H45.4859C45.2576 5.61436 44.7283 4.65961 43.8981 4.01619C43.0886 3.37277 42.1339 3.05106 41.0339 3.05106C39.7885 3.05106 38.7508 3.39352 37.9205 4.07845C37.0903 4.76338 36.561 5.69738 36.3327 6.88045Z" fill="white"/>
<path d="M64.0756 2.08593C64.0756 1.15743 64.8283 0.404732 65.7568 0.404732V0.404732C66.6853 0.404732 67.438 1.15743 67.438 2.08593V14.2902C67.438 15.2187 66.6853 15.9714 65.7568 15.9714V15.9714C64.8283 15.9714 64.0756 15.2187 64.0756 14.2902V13.7298C62.8095 15.494 60.9934 16.3761 58.6273 16.3761C56.4895 16.3761 54.663 15.5874 53.1479 14.01C51.6327 12.4118 50.8751 10.4711 50.8751 8.18804C50.8751 5.88418 51.6327 3.94354 53.1479 2.36613C54.663 0.788708 56.4895 0 58.6273 0C60.9934 0 62.8095 0.87173 64.0756 2.61519V2.08593ZM55.6385 11.7684C56.5725 12.7024 57.7452 13.1694 59.1566 13.1694C60.5679 13.1694 61.7406 12.7024 62.6746 11.7684C63.6086 10.8136 64.0756 9.62017 64.0756 8.18804C64.0756 6.75591 63.6086 5.57285 62.6746 4.63885C61.7406 3.6841 60.5679 3.20672 59.1566 3.20672C57.7452 3.20672 56.5725 3.6841 55.6385 4.63885C54.7045 5.57285 54.2375 6.75591 54.2375 8.18804C54.2375 9.62017 54.7045 10.8136 55.6385 11.7684Z" fill="white"/>
<path d="M74.7195 3.01992C75.3395 1.61366 76.3561 0.719656 77.7692 0.337904C78.709 0.0840291 79.5141 0.913678 79.5141 1.88714V1.88714C79.5141 2.90524 78.6305 3.6698 77.6529 3.95411C77.1137 4.11094 76.6133 4.35994 76.1517 4.70112C75.1969 5.38605 74.7195 6.5276 74.7195 8.12578V14.2902C74.7195 15.2187 73.9668 15.9714 73.0383 15.9714V15.9714C72.1098 15.9714 71.3572 15.2187 71.3572 14.2902V2.08593C71.3572 1.15743 72.1098 0.404732 73.0383 0.404732V0.404732C73.9668 0.404732 74.7195 1.15743 74.7195 2.08593V3.01992Z" fill="white"/>
<path d="M90.1864 0C91.9714 0 93.4139 0.570776 94.514 1.71233C95.614 2.85388 96.164 4.42092 96.164 6.41345V14.2902C96.164 15.2187 95.4113 15.9714 94.4828 15.9714V15.9714C93.5543 15.9714 92.8016 15.2187 92.8016 14.2902V6.75591C92.8016 5.59361 92.4903 4.70112 91.8676 4.07845C91.245 3.45579 90.394 3.14446 89.3147 3.14446C88.1317 3.14446 87.1769 3.51806 86.4505 4.26525C85.724 4.9917 85.3608 6.11249 85.3608 7.62764V14.2902C85.3608 15.2187 84.6081 15.9714 83.6796 15.9714V15.9714C82.7511 15.9714 81.9984 15.2187 81.9984 14.2902V2.08593C81.9984 1.15743 82.7511 0.404732 83.6796 0.404732V0.404732C84.6081 0.404732 85.3608 1.15743 85.3608 2.08593V2.39726C86.3778 0.799085 87.9864 0 90.1864 0Z" fill="white"/>
</svg>
