<svg width="20" height="20" viewBox="0 0 20 20" fill="none" xmlns="http://www.w3.org/2000/svg">
<g clip-path="url(#clip0_3853_7587)">
<path d="M11.2902 6.79541H12.893V8.39814C12.893 8.83889 13.2536 9.19951 13.6943 9.19951C14.1351 9.19951 14.4957 8.83889 14.4957 8.39814V6.79541H16.0984C16.5392 6.79541 16.8998 6.43479 16.8998 5.99404C16.8998 5.55329 16.5392 5.19267 16.0984 5.19267H14.4957V3.58994C14.4957 3.14919 14.1351 2.78857 13.6943 2.78857C13.2536 2.78857 12.893 3.14919 12.893 3.58994V5.19267H11.2902C10.8495 5.19267 10.4889 5.55329 10.4889 5.99404C10.4889 6.43479 10.8495 6.79541 11.2902 6.79541ZM15.4654 12.6213L13.4299 12.3889C12.941 12.3329 12.4602 12.5011 12.1156 12.8457L10.6411 14.3202C8.37326 13.1663 6.51409 11.3151 5.36012 9.03924L6.84265 7.55671C7.18723 7.21212 7.35552 6.72329 7.29943 6.24247L7.06703 4.22302C6.97888 3.41364 6.2897 2.79659 5.48032 2.79659H4.09396C3.18841 2.79659 2.43513 3.54987 2.49123 4.45542C2.91595 11.2991 8.38929 16.7644 15.2249 17.1891C16.1305 17.2452 16.8838 16.4919 16.8838 15.5864V14.2C16.8918 13.3987 16.2747 12.7095 15.4654 12.6213Z" fill="white"/>
</g>
<defs>
<clipPath id="clip0_3853_7587">
<rect width="19.2328" height="19.2328" fill="white" transform="translate(0.078125 0.385254)"/>
</clipPath>
</defs>
</svg>
