<svg width="26" height="26" viewBox="0 0 26 26" fill="none" xmlns="http://www.w3.org/2000/svg">
<path d="M10.928 16.5193L16.3348 13.394L10.928 10.2687V16.5193ZM22.9709 8.36222C23.1063 8.85185 23.2001 9.50817 23.2626 10.3416C23.3355 11.175 23.3668 11.8938 23.3668 12.5189L23.4293 13.394C23.4293 15.6755 23.2626 17.3528 22.9709 18.4258C22.7105 19.3634 22.1062 19.9676 21.1686 20.2281C20.679 20.3635 19.7831 20.4572 18.4079 20.5198C17.0536 20.5927 15.8139 20.6239 14.6679 20.6239L13.0115 20.6864C8.64647 20.6864 5.92744 20.5198 4.85441 20.2281C3.91681 19.9676 3.31258 19.3634 3.05213 18.4258C2.9167 17.9361 2.82294 17.2798 2.76043 16.4464C2.68751 15.613 2.65626 14.8942 2.65626 14.2691L2.59375 13.394C2.59375 11.1125 2.76043 9.43525 3.05213 8.36222C3.31258 7.42462 3.91681 6.82039 4.85441 6.55994C5.34404 6.42451 6.23997 6.33075 7.61511 6.26825C8.96942 6.19532 10.2091 6.16407 11.3551 6.16407L13.0115 6.10156C17.3766 6.10156 20.0956 6.26825 21.1686 6.55994C22.1062 6.82039 22.7105 7.42462 22.9709 8.36222Z" fill="white"/>
</svg>
