<svg width="1309" height="585" viewBox="0 0 1309 585" fill="none" xmlns="http://www.w3.org/2000/svg">
<path opacity="0.1" fill-rule="evenodd" clip-rule="evenodd" d="M654.5 915.5C798.646 915.5 915.5 798.646 915.5 654.5C915.5 510.354 798.646 393.5 654.5 393.5C510.354 393.5 393.5 510.354 393.5 654.5C393.5 798.646 510.354 915.5 654.5 915.5Z" fill="white" fill-opacity="0.17"/>
<path opacity="0.1" fill-rule="evenodd" clip-rule="evenodd" d="M654.5 1111.25C906.756 1111.25 1111.25 906.756 1111.25 654.5C1111.25 402.244 906.756 197.75 654.5 197.75C402.244 197.75 197.75 402.244 197.75 654.5C197.75 906.756 402.244 1111.25 654.5 1111.25Z" fill="white" fill-opacity="0.17" stroke="white" stroke-width="3.2625"/>
<path opacity="0.1" fill-rule="evenodd" clip-rule="evenodd" d="M654.5 1307C1014.87 1307 1307 1014.87 1307 654.5C1307 294.134 1014.87 2 654.5 2C294.134 2 2 294.134 2 654.5C2 1014.87 294.134 1307 654.5 1307Z" fill="white" fill-opacity="0.17" stroke="white" stroke-width="3.2625"/>
</svg>
